<mxfile host="app.diagrams.net" modified="2021-06-21T06:35:02.939Z" agent="5.0 (X11)" etag="vMz1GIqoeKLCWTTqHac2" version="14.8.0" type="github">
  <diagram id="ffmN-8D7zY57aRu8a-QK" name="Page-1">
    <mxGraphModel dx="2210" dy="702" grid="1" gridSize="10" guides="1" tooltips="1" connect="1" arrows="1" fold="1" page="1" pageScale="1" pageWidth="850" pageHeight="1100" math="0" shadow="0">
      <root>
        <mxCell id="0" />
        <mxCell id="1" parent="0" />
        <mxCell id="mPaXB-YMoQ8WJ9LrIm24-4" style="edgeStyle=orthogonalEdgeStyle;rounded=0;orthogonalLoop=1;jettySize=auto;html=1;exitX=0.5;exitY=1;exitDx=0;exitDy=0;" edge="1" parent="1">
          <mxGeometry relative="1" as="geometry">
            <mxPoint x="395" y="460" as="sourcePoint" />
            <mxPoint x="395" y="460" as="targetPoint" />
          </mxGeometry>
        </mxCell>
        <mxCell id="mPaXB-YMoQ8WJ9LrIm24-44" value="" style="fontColor=#0066CC;verticalAlign=top;verticalLabelPosition=bottom;labelPosition=center;align=center;html=1;outlineConnect=0;fillColor=#CCCCCC;strokeColor=#6881B3;gradientColor=none;gradientDirection=north;strokeWidth=2;shape=mxgraph.networks.pc;" vertex="1" parent="1">
          <mxGeometry x="-100" y="460" width="100" height="70" as="geometry" />
        </mxCell>
        <mxCell id="mPaXB-YMoQ8WJ9LrIm24-47" value="" style="rounded=0;whiteSpace=wrap;html=1;" vertex="1" parent="1">
          <mxGeometry x="-300" y="360" width="510" height="300" as="geometry" />
        </mxCell>
        <mxCell id="mPaXB-YMoQ8WJ9LrIm24-48" value="" style="fontColor=#0066CC;verticalAlign=top;verticalLabelPosition=bottom;labelPosition=center;align=center;html=1;outlineConnect=0;fillColor=#CCCCCC;strokeColor=#6881B3;gradientColor=none;gradientDirection=north;strokeWidth=2;shape=mxgraph.networks.pc;" vertex="1" parent="1">
          <mxGeometry x="-250" y="515" width="100" height="70" as="geometry" />
        </mxCell>
        <mxCell id="mPaXB-YMoQ8WJ9LrIm24-49" value="" style="fontColor=#0066CC;verticalAlign=top;verticalLabelPosition=bottom;labelPosition=center;align=center;html=1;outlineConnect=0;fillColor=#CCCCCC;strokeColor=#6881B3;gradientColor=none;gradientDirection=north;strokeWidth=2;shape=mxgraph.networks.pc;" vertex="1" parent="1">
          <mxGeometry x="80" y="510" width="100" height="70" as="geometry" />
        </mxCell>
        <mxCell id="mPaXB-YMoQ8WJ9LrIm24-50" value="" style="fontColor=#0066CC;verticalAlign=top;verticalLabelPosition=bottom;labelPosition=center;align=center;html=1;outlineConnect=0;fillColor=#CCCCCC;strokeColor=#6881B3;gradientColor=none;gradientDirection=north;strokeWidth=2;shape=mxgraph.networks.pc;" vertex="1" parent="1">
          <mxGeometry x="-80" y="510" width="100" height="70" as="geometry" />
        </mxCell>
        <mxCell id="mPaXB-YMoQ8WJ9LrIm24-51" value="" style="fontColor=#0066CC;verticalAlign=top;verticalLabelPosition=bottom;labelPosition=center;align=center;html=1;outlineConnect=0;fillColor=#CCCCCC;strokeColor=#6881B3;gradientColor=none;gradientDirection=north;strokeWidth=2;shape=mxgraph.networks.switch;" vertex="1" parent="1">
          <mxGeometry x="-300" y="350" width="100" height="30" as="geometry" />
        </mxCell>
        <mxCell id="mPaXB-YMoQ8WJ9LrIm24-52" value="" style="rounded=0;whiteSpace=wrap;html=1;" vertex="1" parent="1">
          <mxGeometry x="420" y="360" width="510" height="300" as="geometry" />
        </mxCell>
        <mxCell id="mPaXB-YMoQ8WJ9LrIm24-53" value="" style="fontColor=#0066CC;verticalAlign=top;verticalLabelPosition=bottom;labelPosition=center;align=center;html=1;outlineConnect=0;fillColor=#CCCCCC;strokeColor=#6881B3;gradientColor=none;gradientDirection=north;strokeWidth=2;shape=mxgraph.networks.pc;" vertex="1" parent="1">
          <mxGeometry x="430" y="500" width="100" height="70" as="geometry" />
        </mxCell>
        <mxCell id="mPaXB-YMoQ8WJ9LrIm24-54" value="" style="fontColor=#0066CC;verticalAlign=top;verticalLabelPosition=bottom;labelPosition=center;align=center;html=1;outlineConnect=0;fillColor=#CCCCCC;strokeColor=#6881B3;gradientColor=none;gradientDirection=north;strokeWidth=2;shape=mxgraph.networks.pc;" vertex="1" parent="1">
          <mxGeometry x="625" y="500" width="100" height="70" as="geometry" />
        </mxCell>
        <mxCell id="mPaXB-YMoQ8WJ9LrIm24-55" value="" style="fontColor=#0066CC;verticalAlign=top;verticalLabelPosition=bottom;labelPosition=center;align=center;html=1;outlineConnect=0;fillColor=#CCCCCC;strokeColor=#6881B3;gradientColor=none;gradientDirection=north;strokeWidth=2;shape=mxgraph.networks.pc;" vertex="1" parent="1">
          <mxGeometry x="820" y="500" width="100" height="70" as="geometry" />
        </mxCell>
        <mxCell id="mPaXB-YMoQ8WJ9LrIm24-61" style="edgeStyle=orthogonalEdgeStyle;rounded=0;orthogonalLoop=1;jettySize=auto;html=1;entryX=0.5;entryY=0;entryDx=0;entryDy=0;entryPerimeter=0;" edge="1" parent="1" source="mPaXB-YMoQ8WJ9LrIm24-57" target="mPaXB-YMoQ8WJ9LrIm24-60">
          <mxGeometry relative="1" as="geometry" />
        </mxCell>
        <mxCell id="mPaXB-YMoQ8WJ9LrIm24-57" value="" style="html=1;outlineConnect=0;fillColor=#CCCCCC;strokeColor=#6881B3;gradientColor=none;gradientDirection=north;strokeWidth=2;shape=mxgraph.networks.cloud;fontColor=#ffffff;" vertex="1" parent="1">
          <mxGeometry x="240" y="20" width="160" height="80" as="geometry" />
        </mxCell>
        <mxCell id="mPaXB-YMoQ8WJ9LrIm24-59" value="" style="fontColor=#0066CC;verticalAlign=top;verticalLabelPosition=bottom;labelPosition=center;align=center;html=1;outlineConnect=0;fillColor=#CCCCCC;strokeColor=#6881B3;gradientColor=none;gradientDirection=north;strokeWidth=2;shape=mxgraph.networks.switch;" vertex="1" parent="1">
          <mxGeometry x="830" y="340" width="100" height="30" as="geometry" />
        </mxCell>
        <mxCell id="mPaXB-YMoQ8WJ9LrIm24-62" style="edgeStyle=orthogonalEdgeStyle;rounded=0;orthogonalLoop=1;jettySize=auto;html=1;" edge="1" parent="1" source="mPaXB-YMoQ8WJ9LrIm24-60" target="mPaXB-YMoQ8WJ9LrIm24-51">
          <mxGeometry relative="1" as="geometry" />
        </mxCell>
        <mxCell id="mPaXB-YMoQ8WJ9LrIm24-64" style="edgeStyle=orthogonalEdgeStyle;rounded=0;orthogonalLoop=1;jettySize=auto;html=1;entryX=0.5;entryY=0;entryDx=0;entryDy=0;entryPerimeter=0;" edge="1" parent="1" source="mPaXB-YMoQ8WJ9LrIm24-60" target="mPaXB-YMoQ8WJ9LrIm24-59">
          <mxGeometry relative="1" as="geometry" />
        </mxCell>
        <mxCell id="mPaXB-YMoQ8WJ9LrIm24-60" value="" style="fontColor=#0066CC;verticalAlign=top;verticalLabelPosition=bottom;labelPosition=center;align=center;html=1;outlineConnect=0;fillColor=#CCCCCC;strokeColor=#6881B3;gradientColor=none;gradientDirection=north;strokeWidth=2;shape=mxgraph.networks.router;" vertex="1" parent="1">
          <mxGeometry x="240" y="190" width="160" height="60" as="geometry" />
        </mxCell>
      </root>
    </mxGraphModel>
  </diagram>
</mxfile>
